<svg xmlns="http://www.w3.org/2000/svg" width="16" height="19" viewBox="0 0 16 19" fill="none">
<path fill='none' d="M4.23067 4.1875L7.46134 4.1875C7.46134 4.1875 6.38445 0.999999 9.61512 1C12.8458 1 11.7689 4.1875 11.7689 4.1875L14.9998 4.1875L14.9996 7.375C14.9996 7.375 11.7689 6.3125 11.7689 9.5C11.7689 12.6875 14.9996 11.625 14.9996 11.625L14.9996 14.8125L11.7689 14.8125C11.7689 14.8125 12.8458 18 9.61512 18C6.38445 18 7.46134 14.8125 7.46134 14.8125L4.23067 14.8125L4.23067 11.625C4.23067 11.625 1 12.6875 1 9.5C1 6.3125 4.23067 7.375 4.23067 7.375L4.23067 4.1875Z" stroke-opacity="0.7" stroke-width="1.5"/>
</svg>